Coordinates
version=1
nRows=15
nColumns=46
inDegrees=yes

Units are S.I. units (second, meters, Newtons, ...)
Angles are in degrees.

endheader
time	pelvis_tilt	pelvis_list	pelvis_rotation	pelvis_tx	pelvis_ty	pelvis_tz	bb_angle	bb_tx	bb_ty	bb_tz	hip_flexion_r	hip_adduction_r	hip_rotation_r	knee_angle_r	knee_angle_r_beta	ankle_angle_r	subtalar_angle_r	mtp_angle_r	crank_angle_r	hip_flexion_l	hip_adduction_l	hip_rotation_l	knee_angle_l	knee_angle_l_beta	ankle_angle_l	subtalar_angle_l	mtp_angle_l	crank_angle_l	lumbar_extension	lumbar_bending	lumbar_rotation	arm_flex_r	arm_add_r	arm_rot_r	elbow_flex_r	pro_sup_r	wrist_flex_r	wrist_dev_r	arm_flex_l	arm_add_l	arm_rot_l	elbow_flex_l	pro_sup_l	wrist_flex_l	wrist_dev_l
      0.00000000	    -17.99044440	      4.06278994	      7.53321105	      0.10108719	      1.06817231	     -0.26910832	      0.00000000	      0.50000000	      0.00000000	      0.25000000	     47.90628188	    -12.34862581	     -1.81332642	     59.55842714	      1.03949065	     10.33350526	     -9.69785521	      0.00000000	      0.00000000	     92.27676843	      1.61077036	     -3.28099285	     99.12002324	      1.72997076	     20.92121565	     -6.53072113	      0.00000000	      0.00000000	    -49.86487696	     -1.45431922	     -9.80747830	     89.43019642	     -5.01734344	     38.83444053	     23.94703875	     27.53340102	      0.00000000	      0.00000000	     89.45982658	     -8.82637212	     40.24874943	     33.00765346	     28.46810558	      0.00000000	      0.00000000
      0.00500000	    -17.72916844	      4.11350491	      7.55373918	      0.10105819	      1.06859873	     -0.26920105	      0.00000000	      0.50000000	      0.00000000	      0.25000000	     47.58553767	    -12.41617519	     -1.88410227	     59.47402029	      1.03801747	     10.30402319	     -9.78493548	      0.00000000	      0.00000000	     91.99839459	      1.65418245	     -3.31272807	     99.17051469	      1.73085200	     21.00516638	     -6.53095455	      0.00000000	      0.00000000	    -50.24641924	     -1.41315039	     -9.90641727	     89.40292728	     -5.14436282	     38.15559189	     24.77243944	     28.38267381	      0.00000000	      0.00000000	     89.45667631	     -8.97673493	     39.64946275	     33.47658404	     29.27893738	      0.00000000	      0.00000000
      0.01000000	    -17.95313760	      4.06296405	      7.50101781	      0.10103519	      1.06811151	     -0.26913258	      0.00000000	      0.50000000	      0.00000000	      0.25000000	     47.87746551	    -12.34524916	     -1.82874901	     59.50625439	      1.03858006	     10.27827772	     -9.65566374	      0.00000000	      0.00000000	     92.28208596	      1.57170527	     -3.27759389	     99.23248875	      1.73193365	     20.99842602	     -6.46618993	      0.00000000	      0.00000000	    -49.86648024	     -1.45783340	     -9.84926202	     89.43802244	     -5.29642312	     40.20552513	     23.83091299	     29.30020068	      0.00000000	      0.00000000	     89.47629560	     -9.31815886	     41.40987334	     32.95849121	     30.37058242	      0.00000000	      0.00000000
      0.01500000	    -17.89563270	      4.03503847	      7.51387017	      0.10100637	      1.06822165	     -0.26907319	      0.00000000	      0.50000000	      0.00000000	      0.25000000	     47.76986856	    -12.32174496	     -1.88980136	     59.38717481	      1.03650173	     10.21780276	     -9.73034572	      0.00000000	      0.00000000	     92.25794509	      1.53113319	     -3.27002666	     99.28159085	      1.73279065	     21.00234045	     -6.37812667	      0.00000000	      0.00000000	    -49.94407790	     -1.44591691	     -9.84158884	     89.43400342	     -5.18038443	     39.50113791	     23.77633959	     29.83135804	      0.00000000	      0.00000000	     89.47756200	     -9.14250558	     40.80411766	     32.75434221	     30.91036978	      0.00000000	      0.00000000
      0.02000000	    -17.78889760	      4.09536813	      7.53916371	      0.10090701	      1.06848136	     -0.26914111	      0.00000000	      0.50000000	      0.00000000	      0.25000000	     47.64259945	    -12.36934269	     -1.87052623	     59.35167500	      1.03588215	     10.20634341	     -9.95764306	      0.00000000	      0.00000000	     92.11704481	      1.57959474	     -3.33297840	     99.27312778	      1.73264294	     21.07259260	     -6.53969037	      0.00000000	      0.00000000	    -50.26531694	     -1.39095963	     -9.91381401	     89.38118430	     -5.44778657	     37.99046392	     25.30920253	     30.83779105	      0.00000000	      0.00000000	     89.43032581	     -9.25397713	     39.31647409	     33.86948087	     31.83484109	      0.00000000	      0.00000000
      0.02500000	    -17.95808772	      4.00594164	      7.49777764	      0.10091546	      1.06818518	     -0.26905165	      0.00000000	      0.50000000	      0.00000000	      0.25000000	     47.83429020	    -12.28542590	     -1.89547226	     59.32043280	      1.03533687	     10.13989102	     -9.75967440	      0.00000000	      0.00000000	     92.34566875	      1.47788309	     -3.27954226	     99.31059641	      1.73329689	     20.99723086	     -6.35038060	      0.00000000	      0.00000000	    -49.87603301	     -1.44323737	     -9.76394628	     89.43243335	     -4.97607042	     38.11201053	     23.53067611	     31.27323674	      0.00000000	      0.00000000	     89.48428325	     -8.76740087	     39.96029909	     32.16702793	     32.36546606	      0.00000000	      0.00000000
      0.03000000	    -17.93173394	      4.00188798	      7.51275130	      0.10090833	      1.06819829	     -0.26909503	      0.00000000	      0.50000000	      0.00000000	      0.25000000	     47.81058342	    -12.30161426	     -1.91910028	     59.32969679	      1.03549855	     10.10343230	     -9.74668186	      0.00000000	      0.00000000	     92.32412533	      1.50752146	     -3.23762611	     99.34341643	      1.73386971	     21.06788099	     -6.26082428	      0.00000000	      0.00000000	    -49.91207475	     -1.42777476	     -9.79454783	     89.43661579	     -4.97083524	     38.07174303	     23.46873471	     31.65837029	      0.00000000	      0.00000000	     89.48346651	     -8.80943581	     39.93320176	     32.15999590	     32.77503978	      0.00000000	      0.00000000
      0.03500000	    -17.95306076	      3.99105212	      7.49099742	      0.10095059	      1.06813092	     -0.26908920	      0.00000000	      0.50000000	      0.00000000	      0.25000000	     47.84042308	    -12.29203907	     -1.92666922	     59.32358460	      1.03539188	     10.09219755	     -9.71304269	      0.00000000	      0.00000000	     92.35146899	      1.47542128	     -3.23286103	     99.35861720	      1.73413501	     21.07374939	     -6.25641812	      0.00000000	      0.00000000	    -49.87500837	     -1.44319521	     -9.76025771	     89.44454448	     -5.43909821	     39.97964456	     23.62747114	     32.17721576	      0.00000000	      0.00000000	     89.48619276	     -9.22915698	     40.98198124	     32.47655541	     33.37347739	      0.00000000	      0.00000000
      0.04000000	    -17.98099273	      3.97974161	      7.46084325	      0.10088453	      1.06804247	     -0.26907210	      0.00000000	      0.50000000	      0.00000000	      0.25000000	     47.90536750	    -12.26534262	     -1.90858736	     59.34533903	      1.03577156	     10.03006607	     -9.74567422	      0.00000000	      0.00000000	     92.38735640	      1.44507754	     -3.22610620	     99.37124745	      1.73435545	     21.09476240	     -6.26130276	      0.00000000	      0.00000000	    -49.82888647	     -1.46738363	     -9.78994060	     89.44220937	     -5.38314145	     40.22265606	     23.75497146	     30.55313318	      0.00000000	      0.00000000	     89.48569352	     -9.24430363	     41.07640214	     32.57502341	     32.16036895	      0.00000000	      0.00000000
      0.04500000	    -17.96113192	      3.94853905	      7.43655149	      0.10085144	      1.06804350	     -0.26905013	      0.00000000	      0.50000000	      0.00000000	      0.25000000	     47.88878221	    -12.22794622	     -1.92559328	     59.33552942	      1.03560035	     10.05188548	     -9.69566521	      0.00000000	      0.00000000	     92.37778125	      1.41318397	     -3.20020641	     99.38517146	      1.73459847	     21.12401966	     -6.29233300	      0.00000000	      0.00000000	    -49.86076699	     -1.47719451	     -9.59540671	     89.41921391	     -4.81048201	     37.04134012	     23.53820121	     30.54423037	      0.00000000	      0.00000000	     89.47962847	     -8.42720211	     39.43497185	     32.01179057	     32.38654304	      0.00000000	      0.00000000
      0.05000000	    -17.97149681	      3.92483327	      7.45633021	      0.10087313	      1.06797161	     -0.26919079	      0.00000000	      0.50000000	      0.00000000	      0.25000000	     47.92251670	    -12.26194263	     -1.99692611	     59.39046538	      1.03655917	      9.97228009	     -9.69029972	      0.00000000	      0.00000000	     92.39955939	      1.44318330	     -3.17878529	     99.39685675	      1.73480242	     21.09406554	     -6.30061383	      0.00000000	      0.00000000	    -49.83086637	     -1.39550034	     -9.68353630	     89.43265846	     -4.91342929	     37.91169095	     23.45213503	     31.82448536	      0.00000000	      0.00000000	     89.48417580	     -8.93282574	     40.24092845	     32.05750457	     33.52096303	      0.00000000	      0.00000000
      0.05500000	    -18.06233423	      3.88016264	      7.38896184	      0.10097010	      1.06775238	     -0.26906733	      0.00000000	      0.50000000	      0.00000000	      0.25000000	     48.04110249	    -12.15579708	     -1.93545926	     59.40472057	      1.03680797	      9.99843702	     -9.73495186	      0.00000000	      0.00000000	     92.49375794	      1.34900409	     -3.14145923	     99.40551507	      1.73495353	     21.15930219	     -6.19451334	      0.00000000	      0.00000000	    -49.71122635	     -1.44679706	     -9.63600609	     89.43923703	     -5.39009938	     40.22890650	     23.86466121	     30.27169692	      0.00000000	      0.00000000	     89.48313208	     -9.16009171	     41.17282639	     32.48750987	     32.07324127	      0.00000000	      0.00000000
      0.06000000	    -18.03011854	      3.76040143	      7.41780161	      0.10117964	      1.06777525	     -0.26922709	      0.00000000	      0.50000000	      0.00000000	      0.25000000	     47.95754723	    -12.11084502	     -2.09111601	     59.38568611	      1.03647575	     10.02683736	     -9.66527146	      0.00000000	      0.00000000	     92.48175641	      1.36242339	     -3.01527671	     99.44427693	      1.73563005	     21.27106902	     -6.00999893	      0.00000000	      0.00000000	    -49.78445088	     -1.30863175	     -9.59417262	     89.40552320	     -4.85996909	     37.22118055	     23.58326401	     32.31943075	      0.00000000	      0.00000000	     89.45019901	     -8.85061329	     39.24203149	     32.20755642	     33.99863487	      0.00000000	      0.00000000
      0.06500000	    -18.40480868	      3.81108661	      7.11914659	      0.10135852	      1.06699940	     -0.26886994	      0.00000000	      0.50000000	      0.00000000	      0.25000000	     48.51171804	    -11.91643337	     -1.72757256	     59.51181482	      1.03867711	      9.92195898	     -9.77908817	      0.00000000	      0.00000000	     92.86345244	      1.01283645	     -3.13598691	     99.48647452	      1.73636654	     21.21343779	     -6.18768807	      0.00000000	      0.00000000	    -49.30390134	     -1.64624047	     -9.40710889	     89.40017059	     -4.77289267	     37.26645899	     22.80852378	     33.66861066	      0.00000000	      0.00000000	     89.45700076	     -8.80173762	     40.06448399	     31.50959340	     35.25558418	      0.00000000	      0.00000000
      0.07000000	    -18.58401274	      3.69378527	      7.00482705	      0.10159073	      1.06653062	     -0.26887320	      0.00000000	      0.50000000	      0.00000000	      0.25000000	     48.73857533	    -11.75670372	     -1.69897852	     59.57703394	      1.03981540	      9.96290342	     -9.70989313	      0.00000000	      0.00000000	     93.08535323	      0.86871331	     -3.04264223	     99.54789781	      1.73743858	     21.28005854	     -6.09780293	      0.00000000	      0.00000000	    -49.07391517	     -1.66192915	     -9.17926985	     89.38883894	     -4.53409269	     35.64508625	     22.47918310	     35.00804834	      0.00000000	      0.00000000	     89.44041711	     -8.44407686	     39.27234599	     31.03927947	     36.49426801	      0.00000000	      0.00000000
